<mxfile host="Electron" agent="Mozilla/5.0 (Windows NT 10.0; Win64; x64) AppleWebKit/537.36 (KHTML, like Gecko) draw.io/26.0.4 Chrome/128.0.6613.186 Electron/32.2.5 Safari/537.36" scale="1" border="0" version="26.0.4">
  <diagram name="Page-1" id="nhHDi3WAfPaGHhnO_D6h">
    <mxGraphModel dx="1100" dy="894" grid="1" gridSize="10" guides="1" tooltips="1" connect="1" arrows="1" fold="1" page="1" pageScale="1" pageWidth="850" pageHeight="1100" math="0" shadow="0">
      <root>
        <mxCell id="0" />
        <mxCell id="1" parent="0" />
        <mxCell id="gDy5TxZbRIGF_hv0hbCg-52" value="ALGORITHMS" style="rounded=1;whiteSpace=wrap;html=1;absoluteArcSize=1;arcSize=14;strokeWidth=2;fillColor=#FF0099;strokeColor=#660066;" parent="1" vertex="1">
          <mxGeometry x="329" y="10.5" width="93" height="80" as="geometry" />
        </mxCell>
        <mxCell id="gDy5TxZbRIGF_hv0hbCg-50" value="ALGORITHMS" style="rounded=1;whiteSpace=wrap;html=1;absoluteArcSize=1;arcSize=14;strokeWidth=2;fillColor=#FF0099;strokeColor=#660066;" parent="1" vertex="1">
          <mxGeometry x="323.2" y="20.5" width="93" height="80" as="geometry" />
        </mxCell>
        <mxCell id="gDy5TxZbRIGF_hv0hbCg-10" value="from DAQ stream" style="text;html=1;align=center;verticalAlign=middle;whiteSpace=wrap;rounded=0;rotation=0;fontSize=9;fontColor=#777777;" parent="1" vertex="1">
          <mxGeometry x="120" y="95.5" width="75" height="30" as="geometry" />
        </mxCell>
        <mxCell id="gDy5TxZbRIGF_hv0hbCg-60" style="edgeStyle=orthogonalEdgeStyle;rounded=0;orthogonalLoop=1;jettySize=auto;html=1;exitX=0.25;exitY=0.25;exitDx=0;exitDy=0;exitPerimeter=0;strokeColor=#777777;strokeWidth=2;" parent="1" source="gDy5TxZbRIGF_hv0hbCg-8" edge="1">
          <mxGeometry relative="1" as="geometry">
            <mxPoint x="50" y="50" as="targetPoint" />
          </mxGeometry>
        </mxCell>
        <mxCell id="gDy5TxZbRIGF_hv0hbCg-8" value="DAQ" style="ellipse;shape=cloud;whiteSpace=wrap;html=1;fillColor=#1BA1E2;strokeColor=#777777;" parent="1" vertex="1">
          <mxGeometry y="70.5" width="120" height="80" as="geometry" />
        </mxCell>
        <mxCell id="gDy5TxZbRIGF_hv0hbCg-9" value="" style="endArrow=classic;html=1;rounded=0;strokeColor=#777777;strokeWidth=2;" parent="1" edge="1">
          <mxGeometry width="50" height="50" relative="1" as="geometry">
            <mxPoint x="120" y="100.5" as="sourcePoint" />
            <mxPoint x="200" y="100.5" as="targetPoint" />
          </mxGeometry>
        </mxCell>
        <mxCell id="gDy5TxZbRIGF_hv0hbCg-15" value="from files" style="text;html=1;align=center;verticalAlign=middle;whiteSpace=wrap;rounded=0;rotation=0;fontSize=10;fontColor=#777777;" parent="1" vertex="1">
          <mxGeometry x="120" y="25.5" width="70" height="30" as="geometry" />
        </mxCell>
        <mxCell id="gDy5TxZbRIGF_hv0hbCg-17" value="" style="rhombus;whiteSpace=wrap;html=1;strokeColor=#0000FF;fillColor=#9999cc;" parent="1" vertex="1">
          <mxGeometry x="457" y="39.5" width="40" height="40" as="geometry" />
        </mxCell>
        <mxCell id="gDy5TxZbRIGF_hv0hbCg-18" value="C++ objects&lt;br&gt;(low level)" style="text;html=1;align=center;verticalAlign=middle;whiteSpace=wrap;rounded=0;fontColor=#777777;" parent="1" vertex="1">
          <mxGeometry x="217" y="79.5" width="70" height="30" as="geometry" />
        </mxCell>
        <mxCell id="gDy5TxZbRIGF_hv0hbCg-19" value="C++ objects&lt;br&gt;(refined)" style="text;html=1;align=center;verticalAlign=middle;whiteSpace=wrap;rounded=0;fontColor=#777777;" parent="1" vertex="1">
          <mxGeometry x="457" y="79.5" width="70" height="30" as="geometry" />
        </mxCell>
        <mxCell id="gDy5TxZbRIGF_hv0hbCg-20" value="ALGORITHMS" style="rounded=1;whiteSpace=wrap;html=1;absoluteArcSize=1;arcSize=14;strokeWidth=2;fillColor=#FF0099;strokeColor=#660066;" parent="1" vertex="1">
          <mxGeometry x="317" y="30.5" width="93" height="80" as="geometry" />
        </mxCell>
        <mxCell id="gDy5TxZbRIGF_hv0hbCg-21" value="" style="triangle;whiteSpace=wrap;html=1;rotation=-105;fillColor=#FF8A65;strokeColor=#994C00;" parent="1" vertex="1">
          <mxGeometry x="217" y="29.5" width="30" height="30" as="geometry" />
        </mxCell>
        <mxCell id="gDy5TxZbRIGF_hv0hbCg-22" value="" style="strokeWidth=1;html=1;shape=mxgraph.flowchart.stored_data;whiteSpace=wrap;fillColor=#008A00;strokeColor=#1A3300;" parent="1" vertex="1">
          <mxGeometry x="597" y="44.5" width="60" height="30" as="geometry" />
        </mxCell>
        <mxCell id="gDy5TxZbRIGF_hv0hbCg-23" value="" style="strokeWidth=1;html=1;shape=mxgraph.flowchart.stored_data;whiteSpace=wrap;fillColor=#008A00;strokeColor=#1A3300;" parent="1" vertex="1">
          <mxGeometry x="607" y="54.5" width="60" height="30" as="geometry" />
        </mxCell>
        <mxCell id="gDy5TxZbRIGF_hv0hbCg-24" value="&lt;font color=&quot;#99ff99&quot;&gt;output&lt;/font&gt;&lt;div&gt;&lt;font color=&quot;#99ff99&quot;&gt;files&lt;/font&gt;&lt;/div&gt;" style="strokeWidth=1;html=1;shape=mxgraph.flowchart.stored_data;whiteSpace=wrap;fillColor=#008A00;strokeColor=#1A3300;" parent="1" vertex="1">
          <mxGeometry x="617" y="64.5" width="60" height="30" as="geometry" />
        </mxCell>
        <mxCell id="gDy5TxZbRIGF_hv0hbCg-25" value="" style="triangle;whiteSpace=wrap;html=1;rotation=-90;fillColor=#FF8A65;strokeColor=#994C00;" parent="1" vertex="1">
          <mxGeometry x="227" y="29.5" width="30" height="30" as="geometry" />
        </mxCell>
        <mxCell id="gDy5TxZbRIGF_hv0hbCg-26" value="" style="triangle;whiteSpace=wrap;html=1;rotation=-75;fillColor=#FF8A65;strokeColor=#994C00;" parent="1" vertex="1">
          <mxGeometry x="237" y="39.5" width="30" height="30" as="geometry" />
        </mxCell>
        <mxCell id="gDy5TxZbRIGF_hv0hbCg-27" value="" style="triangle;whiteSpace=wrap;html=1;rotation=-45;fillColor=#FF8A65;strokeColor=#994C00;" parent="1" vertex="1">
          <mxGeometry x="257" y="39.5" width="30" height="30" as="geometry" />
        </mxCell>
        <mxCell id="gDy5TxZbRIGF_hv0hbCg-31" value="" style="rhombus;whiteSpace=wrap;html=1;strokeColor=#0000FF;fillColor=#9999cc;" parent="1" vertex="1">
          <mxGeometry x="467" y="39.5" width="40" height="40" as="geometry" />
        </mxCell>
        <mxCell id="gDy5TxZbRIGF_hv0hbCg-32" value="" style="rhombus;whiteSpace=wrap;html=1;strokeColor=#0000FF;fillColor=#9999cc;" parent="1" vertex="1">
          <mxGeometry x="477" y="39.5" width="40" height="40" as="geometry" />
        </mxCell>
        <mxCell id="gDy5TxZbRIGF_hv0hbCg-33" value="" style="rhombus;whiteSpace=wrap;html=1;strokeColor=#0000FF;fillColor=#9999cc;" parent="1" vertex="1">
          <mxGeometry x="487" y="39.5" width="40" height="40" as="geometry" />
        </mxCell>
        <mxCell id="gDy5TxZbRIGF_hv0hbCg-38" value="" style="endArrow=classic;html=1;rounded=0;strokeColor=#777777;strokeWidth=2;" parent="1" edge="1">
          <mxGeometry width="50" height="50" relative="1" as="geometry">
            <mxPoint x="120" y="50.5" as="sourcePoint" />
            <mxPoint x="200" y="50.5" as="targetPoint" />
          </mxGeometry>
        </mxCell>
        <mxCell id="gDy5TxZbRIGF_hv0hbCg-45" value="" style="endArrow=classic;html=1;rounded=0;strokeColor=#777777;strokeWidth=2;" parent="1" edge="1">
          <mxGeometry width="50" height="50" relative="1" as="geometry">
            <mxPoint x="427" y="60" as="sourcePoint" />
            <mxPoint x="452" y="60.24" as="targetPoint" />
          </mxGeometry>
        </mxCell>
        <mxCell id="gDy5TxZbRIGF_hv0hbCg-46" value="" style="endArrow=classic;html=1;rounded=0;strokeColor=#777777;strokeWidth=2;" parent="1" edge="1">
          <mxGeometry width="50" height="50" relative="1" as="geometry">
            <mxPoint x="537" y="59.49999999999999" as="sourcePoint" />
            <mxPoint x="587" y="59.5" as="targetPoint" />
          </mxGeometry>
        </mxCell>
        <mxCell id="gDy5TxZbRIGF_hv0hbCg-47" value="save to" style="text;html=1;align=center;verticalAlign=middle;whiteSpace=wrap;rounded=0;rotation=0;fontSize=9;fontColor=#777777;" parent="1" vertex="1">
          <mxGeometry x="522" y="54.5" width="75" height="30" as="geometry" />
        </mxCell>
        <mxCell id="gDy5TxZbRIGF_hv0hbCg-48" value="" style="shape=curlyBracket;whiteSpace=wrap;html=1;rounded=1;labelPosition=left;verticalLabelPosition=middle;align=right;verticalAlign=middle;rotation=-90;strokeColor=#777777;size=0.5;" parent="1" vertex="1">
          <mxGeometry x="376.2" y="-50" width="20" height="339.62" as="geometry" />
        </mxCell>
        <mxCell id="gDy5TxZbRIGF_hv0hbCg-49" value="&lt;p style=&quot;line-height: 120%;&quot;&gt;&lt;span&gt;&lt;font&gt;JANA2&lt;/font&gt;&lt;/span&gt;&lt;/p&gt;" style="text;html=1;align=center;verticalAlign=middle;whiteSpace=wrap;rounded=0;fontColor=#FF4C4C;fontStyle=1" parent="1" vertex="1">
          <mxGeometry x="356.2" y="120.5" width="60" height="30" as="geometry" />
        </mxCell>
        <mxCell id="gDy5TxZbRIGF_hv0hbCg-53" value="" style="endArrow=classic;html=1;rounded=0;strokeColor=#777777;strokeWidth=2;" parent="1" edge="1">
          <mxGeometry width="50" height="50" relative="1" as="geometry">
            <mxPoint x="287" y="59.5" as="sourcePoint" />
            <mxPoint x="312" y="59.74000000000001" as="targetPoint" />
          </mxGeometry>
        </mxCell>
        <mxCell id="gDy5TxZbRIGF_hv0hbCg-59" value="" style="group" parent="1" vertex="1" connectable="0">
          <mxGeometry x="50" y="20" width="62" height="51" as="geometry" />
        </mxCell>
        <mxCell id="gDy5TxZbRIGF_hv0hbCg-58" value="&lt;font color=&quot;#ccff99&quot;&gt;files&lt;/font&gt;" style="shape=tapeData;whiteSpace=wrap;html=1;perimeter=ellipsePerimeter;fillColor=#008A00;strokeColor=#006600;" parent="gDy5TxZbRIGF_hv0hbCg-59" vertex="1">
          <mxGeometry x="18" width="44" height="43.5" as="geometry" />
        </mxCell>
        <mxCell id="gDy5TxZbRIGF_hv0hbCg-57" value="&lt;font color=&quot;#ccff99&quot;&gt;files&lt;/font&gt;" style="shape=tapeData;whiteSpace=wrap;html=1;perimeter=ellipsePerimeter;fillColor=#008A00;strokeColor=#006600;" parent="gDy5TxZbRIGF_hv0hbCg-59" vertex="1">
          <mxGeometry x="9" y="4" width="44" height="43.5" as="geometry" />
        </mxCell>
        <mxCell id="gDy5TxZbRIGF_hv0hbCg-56" value="&lt;font color=&quot;#ccff99&quot;&gt;files&lt;/font&gt;" style="shape=tapeData;whiteSpace=wrap;html=1;perimeter=ellipsePerimeter;fillColor=#008A00;strokeColor=#006600;" parent="gDy5TxZbRIGF_hv0hbCg-59" vertex="1">
          <mxGeometry y="7.5" width="44" height="43.5" as="geometry" />
        </mxCell>
      </root>
    </mxGraphModel>
  </diagram>
</mxfile>
